<mxfile host="app.diagrams.net" modified="2023-03-25T16:19:53.979Z" agent="5.0 (Windows NT 10.0; WOW64) AppleWebKit/537.36 (KHTML, like Gecko) Chrome/111.0.0.0 Safari/537.36" etag="eTwoqv6nPUsgq7ysjClV" version="21.0.6" type="github">
  <diagram name="Page-1" id="UTOrTbkf0aPwVwTXBFrP">
    <mxGraphModel dx="957" dy="402" grid="1" gridSize="10" guides="1" tooltips="1" connect="1" arrows="1" fold="1" page="1" pageScale="1" pageWidth="850" pageHeight="1100" math="0" shadow="0">
      <root>
        <mxCell id="0" />
        <mxCell id="1" parent="0" />
        <mxCell id="7gtcljR0DhVANWyreaMU-1" value="Actor" style="shape=umlActor;verticalLabelPosition=bottom;verticalAlign=top;html=1;outlineConnect=0;" vertex="1" parent="1">
          <mxGeometry x="170" y="240" width="30" height="60" as="geometry" />
        </mxCell>
        <mxCell id="7gtcljR0DhVANWyreaMU-2" value="Actor" style="shape=umlActor;verticalLabelPosition=bottom;verticalAlign=top;html=1;outlineConnect=0;" vertex="1" parent="1">
          <mxGeometry x="520" y="240" width="30" height="60" as="geometry" />
        </mxCell>
        <mxCell id="7gtcljR0DhVANWyreaMU-3" value="" style="swimlane;startSize=0;" vertex="1" parent="1">
          <mxGeometry x="260" y="180" width="200" height="220" as="geometry" />
        </mxCell>
        <mxCell id="7gtcljR0DhVANWyreaMU-4" value="doctorprofile" style="ellipse;whiteSpace=wrap;html=1;" vertex="1" parent="7gtcljR0DhVANWyreaMU-3">
          <mxGeometry x="50" y="10" width="100" height="60" as="geometry" />
        </mxCell>
        <mxCell id="7gtcljR0DhVANWyreaMU-6" value="decline request" style="ellipse;whiteSpace=wrap;html=1;" vertex="1" parent="7gtcljR0DhVANWyreaMU-3">
          <mxGeometry x="50" y="150" width="100" height="60" as="geometry" />
        </mxCell>
        <mxCell id="7gtcljR0DhVANWyreaMU-5" value="view requests of user" style="ellipse;whiteSpace=wrap;html=1;" vertex="1" parent="7gtcljR0DhVANWyreaMU-3">
          <mxGeometry x="50" y="80" width="100" height="60" as="geometry" />
        </mxCell>
        <mxCell id="7gtcljR0DhVANWyreaMU-7" value="" style="endArrow=none;html=1;rounded=0;exitX=0;exitY=0.5;exitDx=0;exitDy=0;" edge="1" parent="1" source="7gtcljR0DhVANWyreaMU-6">
          <mxGeometry width="50" height="50" relative="1" as="geometry">
            <mxPoint x="150" y="310" as="sourcePoint" />
            <mxPoint x="200" y="260" as="targetPoint" />
          </mxGeometry>
        </mxCell>
        <mxCell id="7gtcljR0DhVANWyreaMU-8" value="" style="endArrow=none;html=1;rounded=0;exitX=1;exitY=0.5;exitDx=0;exitDy=0;" edge="1" parent="1" source="7gtcljR0DhVANWyreaMU-6">
          <mxGeometry width="50" height="50" relative="1" as="geometry">
            <mxPoint x="470" y="310" as="sourcePoint" />
            <mxPoint x="520" y="260" as="targetPoint" />
          </mxGeometry>
        </mxCell>
        <mxCell id="7gtcljR0DhVANWyreaMU-9" value="" style="endArrow=none;html=1;rounded=0;exitX=1;exitY=0.5;exitDx=0;exitDy=0;" edge="1" parent="1" source="7gtcljR0DhVANWyreaMU-5">
          <mxGeometry width="50" height="50" relative="1" as="geometry">
            <mxPoint x="470" y="310" as="sourcePoint" />
            <mxPoint x="520" y="260" as="targetPoint" />
          </mxGeometry>
        </mxCell>
        <mxCell id="7gtcljR0DhVANWyreaMU-10" value="" style="endArrow=none;html=1;rounded=0;entryX=0;entryY=0.5;entryDx=0;entryDy=0;" edge="1" parent="1" target="7gtcljR0DhVANWyreaMU-5">
          <mxGeometry width="50" height="50" relative="1" as="geometry">
            <mxPoint x="200" y="260" as="sourcePoint" />
            <mxPoint x="250" y="210" as="targetPoint" />
          </mxGeometry>
        </mxCell>
        <mxCell id="7gtcljR0DhVANWyreaMU-11" value="" style="endArrow=none;html=1;rounded=0;exitX=1;exitY=0.5;exitDx=0;exitDy=0;" edge="1" parent="1" source="7gtcljR0DhVANWyreaMU-4">
          <mxGeometry width="50" height="50" relative="1" as="geometry">
            <mxPoint x="470" y="310" as="sourcePoint" />
            <mxPoint x="520" y="260" as="targetPoint" />
          </mxGeometry>
        </mxCell>
        <mxCell id="7gtcljR0DhVANWyreaMU-12" value="" style="endArrow=none;html=1;rounded=0;entryX=0;entryY=0.5;entryDx=0;entryDy=0;" edge="1" parent="1" target="7gtcljR0DhVANWyreaMU-4">
          <mxGeometry width="50" height="50" relative="1" as="geometry">
            <mxPoint x="200" y="260" as="sourcePoint" />
            <mxPoint x="250" y="210" as="targetPoint" />
          </mxGeometry>
        </mxCell>
      </root>
    </mxGraphModel>
  </diagram>
</mxfile>
